<!-- sprite.svg -->  
<svg xmlns="http://www.w3.org/2000/svg" style="display:none;">
  <symbol id="companyLogoMonogram" viewBox="0 0 284.7 405.22">
    <path d="M106.11,330.19c-57.6-2.02-81.22,10.74-86.78,34.86-5.97,25.92,27.16,40.17,72.63,40.17s102.57-10.11,124.55-73.26c21.98-63.16,34.16-100.18,12.63-125.31-9.09-10.61-38.65-11.87-60.88-11.87,13.89,9.35,10.61,32.34,1.01,60.38-9.6,28.04-22.8,46.47-45.47,43.2-24.51-3.54-50.32-50.76-.25-170.27,23.49-56.08,67.51-109.24,98.15-93.22,8.34,4.36.38,18.76-18.32,58.36-15.39,32.6-21.71,62.01,7.71,79.39,16.67,9.85,41.12,11.75,46.04,10.42-16.11-24.82,14.21-76.74,23.49-103.64s2.23-50.93-15.73-63.85c-10.8-7.77-30.32-14.4-38.46-15.54,2.65,10.61.95,21.79.95,21.79-24.82-13.64-93.47-14.97-152.59,28.74C15.66,94.23-17.43,191.37,9.47,256.93c26.91,65.56,119.37,67.07,141.73,54.95-12.88,45.47-21.97,87.88-49.45,87.16-28.8-.76-43.39-41.43,4.36-68.84Z"/>
  </symbol>
  
  <symbol id="companyLogoFull" viewBox="0 0 816.4 405.22">
    <path d="M106.11,330.19c-57.6-2.02-81.22,10.74-86.78,34.86-5.97,25.92,27.16,40.17,72.63,40.17s102.57-10.11,124.55-73.26,34.16-100.18,12.63-125.31c-9.09-10.61-38.65-11.87-60.88-11.87,13.89,9.35,10.61,32.34,1.01,60.38s-22.8,46.47-45.47,43.2c-24.51-3.54-50.32-50.76-.25-170.27,23.49-56.08,67.51-109.24,98.15-93.22,8.34,4.36.38,18.76-18.32,58.36-15.39,32.6-21.71,62.01,7.71,79.39,16.67,9.85,41.12,11.75,46.04,10.42-16.11-24.82,14.21-76.74,23.49-103.64s2.23-50.93-15.73-63.85c-10.8-7.77-30.32-14.4-38.46-15.54,2.65,10.61.95,21.79.95,21.79-24.82-13.64-93.47-14.97-152.59,28.74C15.66,94.23-17.43,191.37,9.47,256.93s119.37,67.07,141.73,54.95c-12.88,45.47-21.97,87.88-49.45,87.16s-43.39-41.43,4.36-68.84Z"/>
    <path d="M510.44,263.18s-24.07,22.68-38.84,27.66c-15.73,5.31-20.66.38-14.09-25.07,9.02-34.95,25.83-69.79,30.06-108.38,4.95-45.14-44.68-55.74-74.81-51.47,7.2,3.79,10.99,14.49,7.87,31.45-2.18-14.87-14.78-29.65-30.32-33.35-22.34-5.31-45.68,1.6-67.07,22.55-18.07,17.68-37.77,50.27-43.83,79.83-15.54,75.76,5.93,111.35,41.17,110.59,35.25-.76,50.59-19.7,64.24-44.34-.38,19.14,12.12,41.88,47.55,42.07,45.1.24,64.8-30.32,73.71-39.98,8.9-9.67,4.36-11.56,4.36-11.56ZM412.29,167.69c-6.44,22.16-17.05,56.46-27.47,86.77-10.42,30.32-23.21,32.63-28.99,25.01-8.34-10.98,11.93-64.04,23.49-100.23,10.19-31.91,14.4-44.14,25.58-46.42,11.18-2.27,13.83,12.7,7.39,34.87Z"/>
    <path d="M616.61,274.74c-8.91,9.66-28.61,40.22-73.71,39.98-35.43-.19-47.93-22.93-47.55-42.07-1.57-12.88,10.87-50.01,17.04-70.4.05-.18.11-.37.17-.55.03-.1.06-.19.09-.29v-.06c.09-.25.16-.5.24-.76,3.83-12.31,7.25-23.66,9.93-32.9.28-.96.54-1.9.78-2.83.01-.04.02-.07.03-.1,5.56-18.68,12.01-40.45,17.62-59.58,5.15-17.56,9.6-32.88,12.01-41.52,7.2-25.76,3.66-40.16-5.43-45.97,36.88-2.53,70.12,6.21,75.03,38.02,3.82,24.8-22.07,108.3-36.9,153.87-.35,1.08-.69,2.14-1.03,3.17-5.88,17.97-12.36,35.48-16.89,53.02-6.57,25.45-1.64,30.38,14.09,25.07,14.77-4.98,38.84-27.66,38.84-27.66,0,0,4.54,1.89-4.36,11.56Z"/>
    <path d="M523.6,164.86c-.24.93-.5,1.87-.78,2.83-2.68,9.24-6.1,20.59-9.93,32.9,2.45-8.06,6.3-20.93,10.71-35.73Z"/>
    <path d="M512.66,201.35v.06c-.04.1-.07.19-.1.29.03-.12.07-.23.1-.35Z"/>
    <path d="M779.11,277.2c-23.87,18.82-64.8,29.94-82.86,10.3-19.34-21.03-8.65-51.6,1.89-72.38,4.3,8.71,13.11,12.41,26.88,11.78,13.76-.64,30.31-4.18,45.38-9.64,16.57-6,16.67-6.19,29.68-48,9.88-31.74,2.53-56.84-37.9-64.16-65.77-11.93-108.83,19.6-133.89,66.94-22.74,42.95-24.69,91.87-3.03,117.29,22.23,26.08,53.05,30,80.59,30,59.08,0,88.77-35.46,110.55-80.52-.97,1.28-16.87,22.3-37.29,38.39ZM711.78,180c5.94-14.27,19.33-44.59,27.04-54.95,7.7-10.35,18.36-13.25,21.72-3.79,3.41,9.6-11.37,42.07-18.44,57.98-7.07,15.92-19.45,47.12-34.36,36-7.74-5.77-1.89-20.97,4.04-35.24Z"/>
  </symbol>
  
  <symbol id="profileIcon" viewBox="0 -960 960 960">
    <path d="M480-480q-66 0-113-47t-47-113q0-66 47-113t113-47q66 0 113 47t47 113q0 66-47 113t-113 47ZM160-160v-112q0-34 17.5-62.5T224-378q62-31 126-46.5T480-440q66 0 130 15.5T736-378q29 15 46.5 43.5T800-272v112H160Zm80-80h480v-32q0-11-5.5-20T700-306q-54-27-109-40.5T480-360q-56 0-111 13.5T260-306q-9 5-14.5 14t-5.5 20v32Zm240-320q33 0 56.5-23.5T560-640q0-33-23.5-56.5T480-720q-33 0-56.5 23.5T400-640q0 33 23.5 56.5T480-560Zm0-80Zm0 400Z"/>
  </symbol>
  
  <symbol id="accountIcon" viewBox="0 -960 960 960">
    <path d="M234-276q51-39 114-61.5T480-360q69 0 132 22.5T726-276q35-41 54.5-93T800-480q0-133-93.5-226.5T480-800q-133 0-226.5 93.5T160-480q0 59 19.5 111t54.5 93Zm246-164q-59 0-99.5-40.5T340-580q0-59 40.5-99.5T480-720q59 0 99.5 40.5T620-580q0 59-40.5 99.5T480-440Zm0 360q-83 0-156-31.5T197-197q-54-54-85.5-127T80-480q0-83 31.5-156T197-763q54-54 127-85.5T480-880q83 0 156 31.5T763-763q54 54 85.5 127T880-480q0 83-31.5 156T763-197q-54 54-127 85.5T480-80Zm0-80q53 0 100-15.5t86-44.5q-39-29-86-44.5T480-280q-53 0-100 15.5T294-220q39 29 86 44.5T480-160Zm0-360q26 0 43-17t17-43q0-26-17-43t-43-17q-26 0-43 17t-17 43q0 26 17 43t43 17Zm0-60Zm0 360Z"/>
  </symbol>
  
  <symbol id="notificationIcon" viewBox="0 -960 960 960">
    <path d="M160-200v-80h80v-280q0-83 50-147.5T420-792v-28q0-25 17.5-42.5T480-880q25 0 42.5 17.5T540-820v28q80 20 130 84.5T720-560v280h80v80H160Zm320-300Zm0 420q-33 0-56.5-23.5T400-160h160q0 33-23.5 56.5T480-80ZM320-280h320v-280q0-66-47-113t-113-47q-66 0-113 47t-47 113v280Z"/>
  </symbol>
  
  <symbol id="subscriptionIcon" viewBox="0 -960 960 960">
    <path d="M480-120 80-600l120-240h560l120 240-400 480Zm-95-520h190l-60-120h-70l-60 120Zm55 347v-267H218l222 267Zm80 0 222-267H520v267Zm144-347h106l-60-120H604l60 120Zm-474 0h106l60-120H250l-60 120Z"/>
  </symbol>
  
  <symbol id="addToHomescreenIcon" viewBox="0 -960 960 960">
    <path d="M720-160v-120H600v-80h120v-120h80v120h120v80H800v120h-80Zm-600 40q-33 0-56.5-23.5T40-200v-560q0-33 23.5-56.5T120-840h560q33 0 56.5 23.5T760-760v200h-80v-80H120v440h520v80H120Zm0-600h560v-40H120v40Zm0 0v-40 40Z"/>
  </symbol>
  
  <symbol id="SettingIcon" viewBox="0 -960 960 960">
    <path d="m370-80-16-128q-13-5-24.5-12T307-235l-119 50L78-375l103-78q-1-7-1-13.5v-27q0-6.5 1-13.5L78-585l110-190 119 50q11-8 23-15t24-12l16-128h220l16 128q13 5 24.5 12t22.5 15l119-50 110 190-103 78q1 7 1 13.5v27q0 6.5-2 13.5l103 78-110 190-118-50q-11 8-23 15t-24 12L590-80H370Zm70-80h79l14-106q31-8 57.5-23.5T639-327l99 41 39-68-86-65q5-14 7-29.5t2-31.5q0-16-2-31.5t-7-29.5l86-65-39-68-99 42q-22-23-48.5-38.5T533-694l-13-106h-79l-14 106q-31 8-57.5 23.5T321-633l-99-41-39 68 86 64q-5 15-7 30t-2 32q0 16 2 31t7 30l-86 65 39 68 99-42q22 23 48.5 38.5T427-266l13 106Zm42-180q58 0 99-41t41-99q0-58-41-99t-99-41q-59 0-99.5 41T342-480q0 58 40.5 99t99.5 41Zm-2-140Z"/>
  </symbol>
</svg>